{"title":"The Monk (Le Moine) 1972","uid":14077156,"size":1257921268,"categoryP":"video","categoryS":"movies","magnet":"?xt=urn:btih:cf041d35d239c71b3b44b8262022d62f05ee2728&amp;dn=The+Monk+%28Le+Moine%29+1972&amp;tr=udp%3A%2F%2Ftracker.leechers-paradise.org%3A6969&amp;tr=udp%3A%2F%2Fzer0day.ch%3A1337&amp;tr=udp%3A%2F%2Fopen.demonii.com%3A1337&amp;tr=udp%3A%2F%2Ftracker.coppersurfer.tk%3A6969&amp;tr=udp%3A%2F%2Fexodus.desync.com%3A6969","seeders":0,"leechers":2,"uploader":"calang0","files":1,"time":1459211987,"description":"\nComplete name :The Monk (Le moine) 1972.avi\r\nFormat : AVI\r\nFormat/Info : Audio Video Interleave\r\nFile size : 1.17 GiB\r\nDuration : 1h 29mn\r\nOverall bit rate : 1 874 Kbps\r\nWriting application : transcode-1.0.2\r\n\r\nVideo\r\nID : 0\r\nFormat : MPEG-4 Visual\r\nFormat profile : Advanced   \r\nFormat settings, BVOP : 1\r\nFormat settings, QPel : No\r\nFormat settings, GMC : No warppoints\r\nFormat settings, Matrix : Default (H.263)\r\nCodec ID : XVID\r\nCodec ID/Hint : XviD\r\nDuration : 1h 29mn\r\nBit rate : 1 736 Kbps\r\nWidth : 640 pixels\r\nHeight : 464 pixels\r\nDisplay aspect ratio : 1.379\r\nFrame rate : 25.000 fps\r\nColor space : YUV\r\nChroma subsampling : 4:2:0\r\nBit depth : 8 bits\r\nScan type : Progressive\r\nCompression mode : Lossy\r\nBits/(Pixel*Frame) : 0.234\r\nStream size : 1.09 GiB (93%)\r\nWriting library : XviD 1.1.2 (UTC 2006-11-01)\r\n\r\nAudio\r\nID : 1\r\nFormat : MPEG Audio\r\nFormat version : Version 1\r\nFormat profile : Layer 3\r\nMode : Joint stereo\r\nMode extension : MS Stereo\r\nCodec ID : 55\r\nCodec ID/Hint : MP3\r\nDuration : 1h 29mn\r\nBit rate mode : Constant\r\nBit rate : 128 Kbps\r\nChannel(s) : 2 channels\r\nSampling rate : 48.0 KHz\r\nCompression mode : Lossy\r\nStream size : 82.0 MiB (7%)\r\nAlignment : Split accross interleaves\r\nInterleave, duration : 40 ms (1.00 video frame)","torrent":{"xt":"urn:btih:cf041d35d239c71b3b44b8262022d62f05ee2728","amp;dn":"The+Monk+%28Le+Moine%29+1972","amp;tr":["udp%3A%2F%2Ftracker.leechers-paradise.org%3A6969","udp%3A%2F%2Fzer0day.ch%3A1337","udp%3A%2F%2Fopen.demonii.com%3A1337","udp%3A%2F%2Ftracker.coppersurfer.tk%3A6969","udp%3A%2F%2Fexodus.desync.com%3A6969"],"infoHash":"cf041d35d239c71b3b44b8262022d62f05ee2728","infoHashBuffer":{"type":"Buffer","data":[207,4,29,53,210,57,199,27,59,68,184,38,32,34,214,47,5,238,39,40]},"announce":[],"urlList":[]}}